<svg width="1440" height="83" viewBox="0 0 1440 83" fill="none" xmlns="http://www.w3.org/2000/svg">
<g clip-path="url(#clip0_31_118)">
<path d="M0 51.3803L15 51.1803C30 51.0803 60 50.6803 90 49.5803C120 48.3803 150 46.3803 180 47.0803C210 47.6803 240 51.0803 270 52.1803C300 53.3803 330 52.3803 360 50.8803C390 49.3803 420 47.3803 450 48.8803C480 50.3803 510 55.3803 540 58.1803C570 61.0803 600 61.6803 630 62.3803C660 63.0803 690 63.6803 720 62.3803C750 61.0803 780 57.6803 810 55.5803C840 53.3803 870 52.3803 900 52.6803C930 53.0803 960 54.6803 990 54.0803C1020 53.3803 1050 50.3803 1080 48.3803C1110 46.3803 1140 45.3803 1170 46.5803C1200 47.6803 1230 51.0803 1260 52.8803C1290 54.6803 1320 55.0803 1350 54.6803C1380 54.3803 1410 53.3803 1425 52.8803L1440 52.3803V15.3803L1425 18.3803C1410 21.3803 1380 27.3803 1350 27.6803C1320 28.0803 1290 22.6803 1260 21.0803C1230 19.3803 1200 21.3803 1170 24.1803C1140 27.0803 1110 30.6803 1080 28.3803C1050 26.0803 1020 17.6803 990 14.5803C960 11.3803 930 13.3803 900 13.5803C870 13.6803 840 12.0803 810 16.1803C780 20.3803 750 30.3803 720 30.8803C690 31.3803 660 22.3803 630 21.3803C600 20.3803 570 27.3803 540 29.0803C510 30.6803 480 27.0803 450 25.0803C420 23.0803 390 22.6803 360 22.8803C330 23.0803 300 23.6803 270 22.5803C240 21.3803 210 18.3803 180 17.3803C150 16.3803 120 17.3803 90 18.6803C60 20.0803 30 21.6803 15 22.5803L0 23.3803V51.3803Z" fill="white" fill-opacity="0.5"/>
<path d="M0 75.3185L15 74.3185C30 73.3185 60 71.3185 90 70.5185C120 69.6185 150 70.0185 180 70.8185C210 71.6185 240 73.0185 270 71.8185C300 70.6185 330 67.0185 360 66.1185C390 65.3185 420 67.3185 450 69.6185C480 72.0185 510 74.6185 540 75.5185C570 76.3185 600 75.3185 630 75.1185C660 75.0185 690 75.6185 720 74.6185C750 73.6185 780 71.0185 810 70.6185C840 70.3185 870 72.3185 900 72.5185C930 72.6185 960 71.0185 990 69.0185C1020 67.0185 1050 64.6185 1080 64.3185C1110 64.0185 1140 65.6185 1170 66.8185C1200 68.0185 1230 68.6185 1260 68.6185C1290 68.6185 1320 68.0185 1350 68.1185C1380 68.3185 1410 69.3185 1425 69.8185L1440 70.3185V52.3185L1425 52.8185C1410 53.3185 1380 54.3185 1350 54.6185C1320 55.0185 1290 54.6185 1260 52.8185C1230 51.0185 1200 47.6185 1170 46.5185C1140 45.3185 1110 46.3185 1080 48.3185C1050 50.3185 1020 53.3185 990 54.0185C960 54.6185 930 53.0185 900 52.6185C870 52.3185 840 53.3185 810 55.5185C780 57.6185 750 61.0185 720 62.3185C690 63.6185 660 63.0185 630 62.3185C600 61.6185 570 61.0185 540 58.1185C510 55.3185 480 50.3185 450 48.8185C420 47.3185 390 49.3185 360 50.8185C330 52.3185 300 53.3185 270 52.1185C240 51.0185 210 47.6185 180 47.0185C150 46.3185 120 48.3185 90 49.5185C60 50.6185 30 51.0185 15 51.1185L0 51.3185V75.3185Z" fill="white" fill-opacity="0.7"/>
<path d="M0 84H15C30 84 60 84 90 84C120 84 150 84 180 84C210 84 240 84 270 84C300 84 330 84 360 84C390 84 420 84 450 84C480 84 510 84 540 84C570 84 600 84 630 84C660 84 690 84 720 84C750 84 780 84 810 84C840 84 870 84 900 84C930 84 960 84 990 84C1020 84 1050 84 1080 84C1110 84 1140 84 1170 84C1200 84 1230 84 1260 84C1290 84 1320 84 1350 84C1380 84 1410 84 1425 84H1440V69L1425 68.5C1410 68 1380 67 1350 66.8C1320 66.7 1290 67.3 1260 67.3C1230 67.3 1200 66.7 1170 65.5C1140 64.3 1110 62.7 1080 63C1050 63.3 1020 65.7 990 67.7C960 69.7 930 71.3 900 71.2C870 71 840 69 810 69.3C780 69.7 750 72.3 720 73.3C690 74.3 660 73.7 630 73.8C600 74 570 75 540 74.2C510 73.3 480 70.7 450 68.3C420 66 390 64 360 64.8C330 65.7 300 69.3 270 70.5C240 71.7 210 70.3 180 69.5C150 68.7 120 68.3 90 69.2C60 70 30 72 15 73L0 74V84Z" fill="white"/>
</g>
<defs>
<clipPath id="clip0_31_118">
<rect width="1440" height="83" fill="white"/>
</clipPath>
</defs>
</svg>
