<svg id="visual" viewBox="0 0 1440 60" width="1440" height="60" xmlns="http://www.w3.org/2000/svg" xmlns:xlink="http://www.w3.org/1999/xlink" version="1.1"><path d="M0 9L16 12.8C32 16.7 64 24.3 96 25.5C128 26.7 160 21.3 192 18.5C224 15.7 256 15.3 288 17.7C320 20 352 25 384 26.2C416 27.3 448 24.7 480 21.7C512 18.7 544 15.3 576 17.2C608 19 640 26 672 27.2C704 28.3 736 23.7 768 21.2C800 18.7 832 18.3 864 17.7C896 17 928 16 960 15.7C992 15.3 1024 15.7 1056 16.2C1088 16.7 1120 17.3 1152 17.2C1184 17 1216 16 1248 16.5C1280 17 1312 19 1344 21.5C1376 24 1408 27 1424 28.5L1440 30L1440 0L1424 0C1408 0 1376 0 1344 0C1312 0 1280 0 1248 0C1216 0 1184 0 1152 0C1120 0 1088 0 1056 0C1024 0 992 0 960 0C928 0 896 0 864 0C832 0 800 0 768 0C736 0 704 0 672 0C640 0 608 0 576 0C544 0 512 0 480 0C448 0 416 0 384 0C352 0 320 0 288 0C256 0 224 0 192 0C160 0 128 0 96 0C64 0 32 0 16 0L0 0Z" fill="#ffffff"></path><path d="M0 36L16 37.3C32 38.7 64 41.3 96 43C128 44.7 160 45.3 192 44.2C224 43 256 40 288 39.5C320 39 352 41 384 40.8C416 40.7 448 38.3 480 37.2C512 36 544 36 576 37.8C608 39.7 640 43.3 672 44.3C704 45.3 736 43.7 768 43.7C800 43.7 832 45.3 864 45.2C896 45 928 43 960 42.8C992 42.7 1024 44.3 1056 43.2C1088 42 1120 38 1152 36.8C1184 35.7 1216 37.3 1248 38.2C1280 39 1312 39 1344 40.3C1376 41.7 1408 44.3 1424 45.7L1440 47L1440 28L1424 26.5C1408 25 1376 22 1344 19.5C1312 17 1280 15 1248 14.5C1216 14 1184 15 1152 15.2C1120 15.3 1088 14.7 1056 14.2C1024 13.7 992 13.3 960 13.7C928 14 896 15 864 15.7C832 16.3 800 16.7 768 19.2C736 21.7 704 26.3 672 25.2C640 24 608 17 576 15.2C544 13.3 512 16.7 480 19.7C448 22.7 416 25.3 384 24.2C352 23 320 18 288 15.7C256 13.3 224 13.7 192 16.5C160 19.3 128 24.7 96 23.5C64 22.3 32 14.7 16 10.8L0 7Z" fill="#ffffff"></path><path d="M0 56L16 56C32 56 64 56 96 55.5C128 55 160 54 192 53C224 52 256 51 288 50.7C320 50.3 352 50.7 384 50.8C416 51 448 51 480 51.8C512 52.7 544 54.3 576 55.2C608 56 640 56 672 55.7C704 55.3 736 54.7 768 54.3C800 54 832 54 864 54C896 54 928 54 960 53.8C992 53.7 1024 53.3 1056 52.8C1088 52.3 1120 51.7 1152 50.7C1184 49.7 1216 48.3 1248 48.2C1280 48 1312 49 1344 50.3C1376 51.7 1408 53.3 1424 54.2L1440 55L1440 45L1424 43.7C1408 42.3 1376 39.7 1344 38.3C1312 37 1280 37 1248 36.2C1216 35.3 1184 33.7 1152 34.8C1120 36 1088 40 1056 41.2C1024 42.3 992 40.7 960 40.8C928 41 896 43 864 43.2C832 43.3 800 41.7 768 41.7C736 41.7 704 43.3 672 42.3C640 41.3 608 37.7 576 35.8C544 34 512 34 480 35.2C448 36.3 416 38.7 384 38.8C352 39 320 37 288 37.5C256 38 224 41 192 42.2C160 43.3 128 42.7 96 41C64 39.3 32 36.7 16 35.3L0 34Z" fill="#ffffff"></path><path d="M0 61L16 61C32 61 64 61 96 61C128 61 160 61 192 61C224 61 256 61 288 61C320 61 352 61 384 61C416 61 448 61 480 61C512 61 544 61 576 61C608 61 640 61 672 61C704 61 736 61 768 61C800 61 832 61 864 61C896 61 928 61 960 61C992 61 1024 61 1056 61C1088 61 1120 61 1152 61C1184 61 1216 61 1248 61C1280 61 1312 61 1344 61C1376 61 1408 61 1424 61L1440 61L1440 53L1424 52.2C1408 51.3 1376 49.7 1344 48.3C1312 47 1280 46 1248 46.2C1216 46.3 1184 47.7 1152 48.7C1120 49.7 1088 50.3 1056 50.8C1024 51.3 992 51.7 960 51.8C928 52 896 52 864 52C832 52 800 52 768 52.3C736 52.7 704 53.3 672 53.7C640 54 608 54 576 53.2C544 52.3 512 50.7 480 49.8C448 49 416 49 384 48.8C352 48.7 320 48.3 288 48.7C256 49 224 50 192 51C160 52 128 53 96 53.5C64 54 32 54 16 54L0 54Z" fill="#ffffff"></path></svg>