<svg id="visual" viewBox="0 0 1440 85" width="1440" height="85" xmlns="http://www.w3.org/2000/svg" xmlns:xlink="http://www.w3.org/1999/xlink" version="1.1"><path d="M0 32L26.7 34.3C53.3 36.7 106.7 41.3 160 39.3C213.3 37.3 266.7 28.7 320 23.2C373.3 17.7 426.7 15.3 480 15.2C533.3 15 586.7 17 640 20.2C693.3 23.3 746.7 27.7 800 30.7C853.3 33.7 906.7 35.3 960 33.3C1013.3 31.3 1066.7 25.7 1120 25.2C1173.3 24.7 1226.7 29.3 1280 29.3C1333.3 29.3 1386.7 24.7 1413.3 22.3L1440 20L1440 0L1413.3 0C1386.7 0 1333.3 0 1280 0C1226.7 0 1173.3 0 1120 0C1066.7 0 1013.3 0 960 0C906.7 0 853.3 0 800 0C746.7 0 693.3 0 640 0C586.7 0 533.3 0 480 0C426.7 0 373.3 0 320 0C266.7 0 213.3 0 160 0C106.7 0 53.3 0 26.7 0L0 0Z" fill="#ffffff"></path><path d="M0 50L26.7 51.7C53.3 53.3 106.7 56.7 160 54.3C213.3 52 266.7 44 320 39.7C373.3 35.3 426.7 34.7 480 35.2C533.3 35.7 586.7 37.3 640 38.2C693.3 39 746.7 39 800 43.5C853.3 48 906.7 57 960 56.5C1013.3 56 1066.7 46 1120 43C1173.3 40 1226.7 44 1280 46.2C1333.3 48.3 1386.7 48.7 1413.3 48.8L1440 49L1440 18L1413.3 20.3C1386.7 22.7 1333.3 27.3 1280 27.3C1226.7 27.3 1173.3 22.7 1120 23.2C1066.7 23.7 1013.3 29.3 960 31.3C906.7 33.3 853.3 31.7 800 28.7C746.7 25.7 693.3 21.3 640 18.2C586.7 15 533.3 13 480 13.2C426.7 13.3 373.3 15.7 320 21.2C266.7 26.7 213.3 35.3 160 37.3C106.7 39.3 53.3 34.7 26.7 32.3L0 30Z" fill="#ffffff"></path><path d="M0 68L26.7 69.3C53.3 70.7 106.7 73.3 160 74.2C213.3 75 266.7 74 320 73.7C373.3 73.3 426.7 73.7 480 72.7C533.3 71.7 586.7 69.3 640 67.8C693.3 66.3 746.7 65.7 800 67.5C853.3 69.3 906.7 73.7 960 73.8C1013.3 74 1066.7 70 1120 68.8C1173.3 67.7 1226.7 69.3 1280 71.5C1333.3 73.7 1386.7 76.3 1413.3 77.7L1440 79L1440 47L1413.3 46.8C1386.7 46.7 1333.3 46.3 1280 44.2C1226.7 42 1173.3 38 1120 41C1066.7 44 1013.3 54 960 54.5C906.7 55 853.3 46 800 41.5C746.7 37 693.3 37 640 36.2C586.7 35.3 533.3 33.7 480 33.2C426.7 32.7 373.3 33.3 320 37.7C266.7 42 213.3 50 160 52.3C106.7 54.7 53.3 51.3 26.7 49.7L0 48Z" fill="#ffffff"></path><path d="M0 86L26.7 86C53.3 86 106.7 86 160 86C213.3 86 266.7 86 320 86C373.3 86 426.7 86 480 86C533.3 86 586.7 86 640 86C693.3 86 746.7 86 800 86C853.3 86 906.7 86 960 86C1013.3 86 1066.7 86 1120 86C1173.3 86 1226.7 86 1280 86C1333.3 86 1386.7 86 1413.3 86L1440 86L1440 77L1413.3 75.7C1386.7 74.3 1333.3 71.7 1280 69.5C1226.7 67.3 1173.3 65.7 1120 66.8C1066.7 68 1013.3 72 960 71.8C906.7 71.7 853.3 67.3 800 65.5C746.7 63.7 693.3 64.3 640 65.8C586.7 67.3 533.3 69.7 480 70.7C426.7 71.7 373.3 71.3 320 71.7C266.7 72 213.3 73 160 72.2C106.7 71.3 53.3 68.7 26.7 67.3L0 66Z" fill="#ffffff"></path></svg>