<svg id="visual" viewBox="0 0 1440 83" width="1440" height="83" xmlns="http://www.w3.org/2000/svg" xmlns:xlink="http://www.w3.org/1999/xlink" version="1.1"><path d="M0 8L14.2 9.2C28.3 10.3 56.7 12.7 84.8 12.7C113 12.7 141 10.3 169.2 11.7C197.3 13 225.7 18 254 20.5C282.3 23 310.7 23 339 20.2C367.3 17.3 395.7 11.7 423.8 11.2C452 10.7 480 15.3 508.2 15.3C536.3 15.3 564.7 10.7 593 10.7C621.3 10.7 649.7 15.3 677.8 16.2C706 17 734 14 762.2 13.3C790.3 12.7 818.7 14.3 847 16.3C875.3 18.3 903.7 20.7 931.8 18.5C960 16.3 988 9.7 1016.2 7.2C1044.3 4.7 1072.7 6.3 1101 9.7C1129.3 13 1157.7 18 1186 18.7C1214.3 19.3 1242.7 15.7 1270.8 15.7C1299 15.7 1327 19.3 1355.2 19.2C1383.3 19 1411.7 15 1425.8 13L1440 11L1440 0L1425.8 0C1411.7 0 1383.3 0 1355.2 0C1327 0 1299 0 1270.8 0C1242.7 0 1214.3 0 1186 0C1157.7 0 1129.3 0 1101 0C1072.7 0 1044.3 0 1016.2 0C988 0 960 0 931.8 0C903.7 0 875.3 0 847 0C818.7 0 790.3 0 762.2 0C734 0 706 0 677.8 0C649.7 0 621.3 0 593 0C564.7 0 536.3 0 508.2 0C480 0 452 0 423.8 0C395.7 0 367.3 0 339 0C310.7 0 282.3 0 254 0C225.7 0 197.3 0 169.2 0C141 0 113 0 84.8 0C56.7 0 28.3 0 14.2 0L0 0Z" fill="#ffffff"></path><path d="M0 28L14.2 31C28.3 34 56.7 40 84.8 39.8C113 39.7 141 33.3 169.2 30.5C197.3 27.7 225.7 28.3 254 29.2C282.3 30 310.7 31 339 36.7C367.3 42.3 395.7 52.7 423.8 57C452 61.3 480 59.7 508.2 52.2C536.3 44.7 564.7 31.3 593 27C621.3 22.7 649.7 27.3 677.8 31C706 34.7 734 37.3 762.2 40.2C790.3 43 818.7 46 847 50.3C875.3 54.7 903.7 60.3 931.8 59.7C960 59 988 52 1016.2 43.3C1044.3 34.7 1072.7 24.3 1101 23.7C1129.3 23 1157.7 32 1186 33.8C1214.3 35.7 1242.7 30.3 1270.8 30.7C1299 31 1327 37 1355.2 38.7C1383.3 40.3 1411.7 37.7 1425.8 36.3L1440 35L1440 9L1425.8 11C1411.7 13 1383.3 17 1355.2 17.2C1327 17.3 1299 13.7 1270.8 13.7C1242.7 13.7 1214.3 17.3 1186 16.7C1157.7 16 1129.3 11 1101 7.7C1072.7 4.3 1044.3 2.7 1016.2 5.2C988 7.7 960 14.3 931.8 16.5C903.7 18.7 875.3 16.3 847 14.3C818.7 12.3 790.3 10.7 762.2 11.3C734 12 706 15 677.8 14.2C649.7 13.3 621.3 8.7 593 8.7C564.7 8.7 536.3 13.3 508.2 13.3C480 13.3 452 8.7 423.8 9.2C395.7 9.7 367.3 15.3 339 18.2C310.7 21 282.3 21 254 18.5C225.7 16 197.3 11 169.2 9.7C141 8.3 113 10.7 84.8 10.7C56.7 10.7 28.3 8.3 14.2 7.2L0 6Z" fill="#ffffff"></path><path d="M0 57L14.2 57.8C28.3 58.7 56.7 60.3 84.8 60.3C113 60.3 141 58.7 169.2 55.7C197.3 52.7 225.7 48.3 254 46.8C282.3 45.3 310.7 46.7 339 50.5C367.3 54.3 395.7 60.7 423.8 63.8C452 67 480 67 508.2 60.5C536.3 54 564.7 41 593 36.7C621.3 32.3 649.7 36.7 677.8 43.3C706 50 734 59 762.2 64.3C790.3 69.7 818.7 71.3 847 72.5C875.3 73.7 903.7 74.3 931.8 74.3C960 74.3 988 73.7 1016.2 66.7C1044.3 59.7 1072.7 46.3 1101 42.5C1129.3 38.7 1157.7 44.3 1186 43.7C1214.3 43 1242.7 36 1270.8 37.3C1299 38.7 1327 48.3 1355.2 54.5C1383.3 60.7 1411.7 63.3 1425.8 64.7L1440 66L1440 33L1425.8 34.3C1411.7 35.7 1383.3 38.3 1355.2 36.7C1327 35 1299 29 1270.8 28.7C1242.7 28.3 1214.3 33.7 1186 31.8C1157.7 30 1129.3 21 1101 21.7C1072.7 22.3 1044.3 32.7 1016.2 41.3C988 50 960 57 931.8 57.7C903.7 58.3 875.3 52.7 847 48.3C818.7 44 790.3 41 762.2 38.2C734 35.3 706 32.7 677.8 29C649.7 25.3 621.3 20.7 593 25C564.7 29.3 536.3 42.7 508.2 50.2C480 57.7 452 59.3 423.8 55C395.7 50.7 367.3 40.3 339 34.7C310.7 29 282.3 28 254 27.2C225.7 26.3 197.3 25.7 169.2 28.5C141 31.3 113 37.7 84.8 37.8C56.7 38 28.3 32 14.2 29L0 26Z" fill="#ffffff"></path><path d="M0 84L14.2 84C28.3 84 56.7 84 84.8 84C113 84 141 84 169.2 84C197.3 84 225.7 84 254 84C282.3 84 310.7 84 339 84C367.3 84 395.7 84 423.8 84C452 84 480 84 508.2 84C536.3 84 564.7 84 593 84C621.3 84 649.7 84 677.8 84C706 84 734 84 762.2 84C790.3 84 818.7 84 847 84C875.3 84 903.7 84 931.8 84C960 84 988 84 1016.2 84C1044.3 84 1072.7 84 1101 84C1129.3 84 1157.7 84 1186 84C1214.3 84 1242.7 84 1270.8 84C1299 84 1327 84 1355.2 84C1383.3 84 1411.7 84 1425.8 84L1440 84L1440 64L1425.8 62.7C1411.7 61.3 1383.3 58.7 1355.2 52.5C1327 46.3 1299 36.7 1270.8 35.3C1242.7 34 1214.3 41 1186 41.7C1157.7 42.3 1129.3 36.7 1101 40.5C1072.7 44.3 1044.3 57.7 1016.2 64.7C988 71.7 960 72.3 931.8 72.3C903.7 72.3 875.3 71.7 847 70.5C818.7 69.3 790.3 67.7 762.2 62.3C734 57 706 48 677.8 41.3C649.7 34.7 621.3 30.3 593 34.7C564.7 39 536.3 52 508.2 58.5C480 65 452 65 423.8 61.8C395.7 58.7 367.3 52.3 339 48.5C310.7 44.7 282.3 43.3 254 44.8C225.7 46.3 197.3 50.7 169.2 53.7C141 56.7 113 58.3 84.8 58.3C56.7 58.3 28.3 56.7 14.2 55.8L0 55Z" fill="#ffffff"></path></svg>